<svg width="40" height="40" viewBox="0 0 40 40" fill="none" xmlns="http://www.w3.org/2000/svg">
<g filter="url(#filter0_f_849_1385)">
<path d="M30.6668 29.8193C31.1755 29.219 30.7267 28.3497 29.9399 28.3376C22.8833 28.2287 16.8898 28.3646 9.59712 28.809C8.81186 28.8568 8.40263 29.7452 8.93765 30.322C11.6102 33.2032 15.3896 35 19.5794 35C24.0077 35 27.9776 32.9927 30.6668 29.8193Z" stroke="#4C4CFF" stroke-linecap="round" stroke-linejoin="round"/>
<path d="M7.07348 12.1598C6.67114 12.8297 7.24275 13.6145 8.01852 13.5208C16.1184 12.5428 22.2272 12.2462 30.6868 12.7494C31.47 12.796 31.9955 11.9733 31.5482 11.3287C28.8908 7.49901 24.5205 5 19.5794 5C14.2892 5 9.65327 7.86456 7.07348 12.1598Z" stroke="#4C4CFF" stroke-linecap="round" stroke-linejoin="round"/>
</g>
<g filter="url(#filter1_f_849_1385)">
<path d="M30.6668 29.8193C31.1755 29.219 30.7267 28.3497 29.9399 28.3376C22.8833 28.2287 16.8898 28.3646 9.59712 28.809C8.81186 28.8568 8.40263 29.7452 8.93765 30.322C11.6102 33.2032 15.3896 35 19.5794 35C24.0077 35 27.9776 32.9927 30.6668 29.8193Z" stroke="#4C4CFF" stroke-linecap="round" stroke-linejoin="round"/>
<path d="M7.07348 12.1598C6.67114 12.8297 7.24275 13.6145 8.01852 13.5208C16.1184 12.5428 22.2272 12.2462 30.6868 12.7494C31.47 12.796 31.9955 11.9733 31.5482 11.3287C28.8908 7.49901 24.5205 5 19.5794 5C14.2892 5 9.65327 7.86456 7.07348 12.1598Z" stroke="#4C4CFF" stroke-linecap="round" stroke-linejoin="round"/>
</g>
<path d="M30.6668 29.8193C31.1755 29.219 30.7267 28.3497 29.9399 28.3376C22.8833 28.2287 16.8898 28.3646 9.59712 28.809C8.81186 28.8568 8.40263 29.7452 8.93765 30.322C11.6102 33.2032 15.3896 35 19.5794 35C24.0077 35 27.9776 32.9927 30.6668 29.8193Z" stroke="#4C4CFF" stroke-linecap="round" stroke-linejoin="round"/>
<path d="M7.07348 12.1598C6.67114 12.8297 7.24275 13.6145 8.01852 13.5208C16.1184 12.5428 22.2272 12.2462 30.6868 12.7494C31.47 12.796 31.9955 11.9733 31.5482 11.3287C28.8908 7.49901 24.5205 5 19.5794 5C14.2892 5 9.65327 7.86456 7.07348 12.1598Z" stroke="#4C4CFF" stroke-linecap="round" stroke-linejoin="round"/>
<path d="M30.6668 29.8193C31.1755 29.219 30.7267 28.3497 29.9399 28.3376C22.8833 28.2287 16.8898 28.3646 9.59712 28.809C8.81186 28.8568 8.40263 29.7452 8.93765 30.322C11.6102 33.2032 15.3896 35 19.5794 35C24.0077 35 27.9776 32.9927 30.6668 29.8193Z" stroke="white" stroke-width="0.5" stroke-linecap="round" stroke-linejoin="round"/>
<path d="M7.07348 12.1598C6.67114 12.8297 7.24275 13.6145 8.01852 13.5208C16.1184 12.5428 22.2272 12.2462 30.6868 12.7494C31.47 12.796 31.9955 11.9733 31.5482 11.3287C28.8908 7.49901 24.5205 5 19.5794 5C14.2892 5 9.65327 7.86456 7.07348 12.1598Z" stroke="white" stroke-width="0.5" stroke-linecap="round" stroke-linejoin="round"/>
<g filter="url(#filter2_f_849_1385)">
<path d="M34.0742 22.3125C34.2317 21.2661 33.4169 20.3644 32.3621 20.2793C23.316 19.5501 16.1295 19.4321 6.7985 19.9169C5.74034 19.9719 4.89925 20.8523 5.0287 21.904C5.13144 22.7387 5.30124 23.552 5.5324 24.3381C5.77103 25.1496 6.55912 25.6496 7.4045 25.6202C16.2596 25.3127 23.2048 25.2892 31.7977 25.5205C32.6433 25.5432 33.4273 25.037 33.6596 24.2235C33.837 23.6023 33.9761 22.9643 34.0742 22.3125Z" stroke="#E33CD5" stroke-linecap="round" stroke-linejoin="round"/>
</g>
<g filter="url(#filter3_f_849_1385)">
<path d="M34.0742 22.3125C34.2317 21.2661 33.4169 20.3644 32.3621 20.2793C23.316 19.5501 16.1295 19.4321 6.7985 19.9169C5.74034 19.9719 4.89925 20.8523 5.0287 21.904C5.13144 22.7387 5.30124 23.552 5.5324 24.3381C5.77103 25.1496 6.55912 25.6496 7.4045 25.6202C16.2596 25.3127 23.2048 25.2892 31.7977 25.5205C32.6433 25.5432 33.4273 25.037 33.6596 24.2235C33.837 23.6023 33.9761 22.9643 34.0742 22.3125Z" stroke="#E33CD5" stroke-linecap="round" stroke-linejoin="round"/>
</g>
<path d="M34.0742 22.3125C34.2317 21.2661 33.4169 20.3644 32.3621 20.2793C23.316 19.5501 16.1295 19.4321 6.7985 19.9169C5.74034 19.9719 4.89925 20.8523 5.0287 21.904C5.13144 22.7387 5.30124 23.552 5.5324 24.3381C5.77103 25.1496 6.55912 25.6496 7.4045 25.6202C16.2596 25.3127 23.2048 25.2892 31.7977 25.5205C32.6433 25.5432 33.4273 25.037 33.6596 24.2235C33.837 23.6023 33.9761 22.9643 34.0742 22.3125Z" stroke="#E33CD5" stroke-linecap="round" stroke-linejoin="round"/>
<path d="M34.0742 22.3125C34.2317 21.2661 33.4169 20.3644 32.3621 20.2793C23.316 19.5501 16.1295 19.4321 6.7985 19.9169C5.74034 19.9719 4.89925 20.8523 5.0287 21.904C5.13144 22.7387 5.30124 23.552 5.5324 24.3381C5.77103 25.1496 6.55912 25.6496 7.4045 25.6202C16.2596 25.3127 23.2048 25.2892 31.7977 25.5205C32.6433 25.5432 33.4273 25.037 33.6596 24.2235C33.837 23.6023 33.9761 22.9643 34.0742 22.3125Z" stroke="white" stroke-width="0.5" stroke-linecap="round" stroke-linejoin="round"/>
<g filter="url(#filter4_f_849_1385)">
<path d="M4.91309 16.625C6.86821 15.125 8.82333 15.125 10.7785 16.625C12.7336 18.125 14.6887 18.125 16.6438 16.625C18.5989 15.125 20.5541 15.125 22.5092 16.625C24.4643 18.125 26.4194 18.125 28.3746 16.625C30.3297 15.125 32.2848 15.125 34.2399 16.625" stroke="#00CCCC" stroke-linecap="round" stroke-linejoin="round"/>
</g>
<g filter="url(#filter5_f_849_1385)">
<path d="M4.91309 16.625C6.86821 15.125 8.82333 15.125 10.7785 16.625C12.7336 18.125 14.6887 18.125 16.6438 16.625C18.5989 15.125 20.5541 15.125 22.5092 16.625C24.4643 18.125 26.4194 18.125 28.3746 16.625C30.3297 15.125 32.2848 15.125 34.2399 16.625" stroke="#00CCCC" stroke-linecap="round" stroke-linejoin="round"/>
</g>
<path d="M4.91309 16.625C6.86821 15.125 8.82333 15.125 10.7785 16.625C12.7336 18.125 14.6887 18.125 16.6438 16.625C18.5989 15.125 20.5541 15.125 22.5092 16.625C24.4643 18.125 26.4194 18.125 28.3746 16.625C30.3297 15.125 32.2848 15.125 34.2399 16.625" stroke="#00CCCC" stroke-linecap="round" stroke-linejoin="round"/>
<path d="M4.91309 16.625C6.86821 15.125 8.82333 15.125 10.7785 16.625C12.7336 18.125 14.6887 18.125 16.6438 16.625C18.5989 15.125 20.5541 15.125 22.5092 16.625C24.4643 18.125 26.4194 18.125 28.3746 16.625C30.3297 15.125 32.2848 15.125 34.2399 16.625" stroke="white" stroke-width="0.5" stroke-linecap="round" stroke-linejoin="round"/>
<g filter="url(#filter6_f_849_1385)">
<ellipse cx="0.736837" cy="0.559799" rx="0.736837" ry="0.559799" transform="matrix(0.881086 0.472957 0.45642 -0.889764 13.7112 31.3857)" stroke="#4C4CFF"/>
<ellipse cx="1.10147" cy="0.748885" rx="1.10147" ry="0.748885" transform="matrix(0.964427 0.264348 -0.25339 0.967364 25.0881 8.75)" stroke="#4C4CFF"/>
<ellipse cx="0.734315" cy="0.561663" rx="0.734315" ry="0.561663" transform="matrix(0.964428 -0.264347 -0.25339 -0.967364 23.5271 31.9751)" stroke="#4C4CFF"/>
<ellipse cx="18.4769" cy="10.25" rx="1.09975" ry="0.75" transform="rotate(180 18.4769 10.25)" stroke="#4C4CFF"/>
<ellipse cx="1.10147" cy="0.748885" rx="1.10147" ry="0.748885" transform="matrix(0.964427 0.264349 -0.253389 0.967364 20.6892 6.5)" stroke="#4C4CFF"/>
<ellipse cx="0.733173" cy="0.5625" rx="0.733173" ry="0.5625" transform="matrix(1 0 0 -1 18.8435 33.125)" stroke="#4C4CFF"/>
<ellipse cx="1.10526" cy="0.746399" rx="1.10526" ry="0.746399" transform="matrix(0.881086 -0.472956 0.456421 0.889764 12.2449 9.04541)" stroke="#4C4CFF"/>
</g>
<g filter="url(#filter7_f_849_1385)">
<ellipse cx="0.736837" cy="0.559799" rx="0.736837" ry="0.559799" transform="matrix(0.881086 0.472957 0.45642 -0.889764 13.7112 31.3857)" stroke="#4C4CFF"/>
<ellipse cx="1.10147" cy="0.748885" rx="1.10147" ry="0.748885" transform="matrix(0.964427 0.264348 -0.25339 0.967364 25.0881 8.75)" stroke="#4C4CFF"/>
<ellipse cx="0.734315" cy="0.561663" rx="0.734315" ry="0.561663" transform="matrix(0.964428 -0.264347 -0.25339 -0.967364 23.5271 31.9751)" stroke="#4C4CFF"/>
<ellipse cx="18.4769" cy="10.25" rx="1.09975" ry="0.75" transform="rotate(180 18.4769 10.25)" stroke="#4C4CFF"/>
<ellipse cx="1.10147" cy="0.748885" rx="1.10147" ry="0.748885" transform="matrix(0.964427 0.264349 -0.253389 0.967364 20.6892 6.5)" stroke="#4C4CFF"/>
<ellipse cx="0.733173" cy="0.5625" rx="0.733173" ry="0.5625" transform="matrix(1 0 0 -1 18.8435 33.125)" stroke="#4C4CFF"/>
<ellipse cx="1.10526" cy="0.746399" rx="1.10526" ry="0.746399" transform="matrix(0.881086 -0.472956 0.456421 0.889764 12.2449 9.04541)" stroke="#4C4CFF"/>
</g>
<ellipse cx="0.736837" cy="0.559799" rx="0.736837" ry="0.559799" transform="matrix(0.881086 0.472957 0.45642 -0.889764 13.7112 31.3857)" stroke="#4C4CFF"/>
<ellipse cx="1.10147" cy="0.748885" rx="1.10147" ry="0.748885" transform="matrix(0.964427 0.264348 -0.25339 0.967364 25.0881 8.75)" stroke="#4C4CFF"/>
<ellipse cx="0.734315" cy="0.561663" rx="0.734315" ry="0.561663" transform="matrix(0.964428 -0.264347 -0.25339 -0.967364 23.5271 31.9751)" stroke="#4C4CFF"/>
<ellipse cx="18.4769" cy="10.25" rx="1.09975" ry="0.75" transform="rotate(180 18.4769 10.25)" stroke="#4C4CFF"/>
<ellipse cx="1.10147" cy="0.748885" rx="1.10147" ry="0.748885" transform="matrix(0.964427 0.264349 -0.253389 0.967364 20.6892 6.5)" stroke="#4C4CFF"/>
<ellipse cx="0.733173" cy="0.5625" rx="0.733173" ry="0.5625" transform="matrix(1 0 0 -1 18.8435 33.125)" stroke="#4C4CFF"/>
<ellipse cx="1.10526" cy="0.746399" rx="1.10526" ry="0.746399" transform="matrix(0.881086 -0.472956 0.456421 0.889764 12.2449 9.04541)" stroke="#4C4CFF"/>
<ellipse cx="0.736837" cy="0.559799" rx="0.736837" ry="0.559799" transform="matrix(0.881086 0.472957 0.45642 -0.889764 13.7112 31.3857)" stroke="white" stroke-width="0.5"/>
<ellipse cx="1.10147" cy="0.748885" rx="1.10147" ry="0.748885" transform="matrix(0.964427 0.264348 -0.25339 0.967364 25.0881 8.75)" stroke="white" stroke-width="0.5"/>
<ellipse cx="0.734315" cy="0.561663" rx="0.734315" ry="0.561663" transform="matrix(0.964428 -0.264347 -0.25339 -0.967364 23.5271 31.9751)" stroke="white" stroke-width="0.5"/>
<ellipse cx="18.4769" cy="10.25" rx="1.09975" ry="0.75" transform="rotate(180 18.4769 10.25)" stroke="white" stroke-width="0.5"/>
<ellipse cx="1.10147" cy="0.748885" rx="1.10147" ry="0.748885" transform="matrix(0.964427 0.264349 -0.253389 0.967364 20.6892 6.5)" stroke="white" stroke-width="0.5"/>
<ellipse cx="0.733173" cy="0.5625" rx="0.733173" ry="0.5625" transform="matrix(1 0 0 -1 18.8435 33.125)" stroke="white" stroke-width="0.5"/>
<ellipse cx="1.10526" cy="0.746399" rx="1.10526" ry="0.746399" transform="matrix(0.881086 -0.472956 0.456421 0.889764 12.2449 9.04541)" stroke="white" stroke-width="0.5"/>
<defs>
<filter id="filter0_f_849_1385" x="2.43457" y="0.5" width="33.7849" height="39" filterUnits="userSpaceOnUse" color-interpolation-filters="sRGB">
<feFlood flood-opacity="0" result="BackgroundImageFix"/>
<feBlend mode="normal" in="SourceGraphic" in2="BackgroundImageFix" result="shape"/>
<feGaussianBlur stdDeviation="2" result="effect1_foregroundBlur_849_1385"/>
</filter>
<filter id="filter1_f_849_1385" x="2.43457" y="0.5" width="33.7849" height="39" filterUnits="userSpaceOnUse" color-interpolation-filters="sRGB">
<feFlood flood-opacity="0" result="BackgroundImageFix"/>
<feBlend mode="normal" in="SourceGraphic" in2="BackgroundImageFix" result="shape"/>
<feGaussianBlur stdDeviation="2" result="effect1_foregroundBlur_849_1385"/>
</filter>
<filter id="filter2_f_849_1385" x="0.515137" y="15.125" width="38.0791" height="14.9966" filterUnits="userSpaceOnUse" color-interpolation-filters="sRGB">
<feFlood flood-opacity="0" result="BackgroundImageFix"/>
<feBlend mode="normal" in="SourceGraphic" in2="BackgroundImageFix" result="shape"/>
<feGaussianBlur stdDeviation="2" result="effect1_foregroundBlur_849_1385"/>
</filter>
<filter id="filter3_f_849_1385" x="0.515137" y="15.125" width="38.0791" height="14.9966" filterUnits="userSpaceOnUse" color-interpolation-filters="sRGB">
<feFlood flood-opacity="0" result="BackgroundImageFix"/>
<feBlend mode="normal" in="SourceGraphic" in2="BackgroundImageFix" result="shape"/>
<feGaussianBlur stdDeviation="2" result="effect1_foregroundBlur_849_1385"/>
</filter>
<filter id="filter4_f_849_1385" x="0.413086" y="11" width="38.3269" height="11.25" filterUnits="userSpaceOnUse" color-interpolation-filters="sRGB">
<feFlood flood-opacity="0" result="BackgroundImageFix"/>
<feBlend mode="normal" in="SourceGraphic" in2="BackgroundImageFix" result="shape"/>
<feGaussianBlur stdDeviation="2" result="effect1_foregroundBlur_849_1385"/>
</filter>
<filter id="filter5_f_849_1385" x="0.413086" y="11" width="38.3269" height="11.25" filterUnits="userSpaceOnUse" color-interpolation-filters="sRGB">
<feFlood flood-opacity="0" result="BackgroundImageFix"/>
<feBlend mode="normal" in="SourceGraphic" in2="BackgroundImageFix" result="shape"/>
<feGaussianBlur stdDeviation="2" result="effect1_foregroundBlur_849_1385"/>
</filter>
<filter id="filter6_f_849_1385" x="8.03101" y="2.2334" width="23.5081" height="35.3916" filterUnits="userSpaceOnUse" color-interpolation-filters="sRGB">
<feFlood flood-opacity="0" result="BackgroundImageFix"/>
<feBlend mode="normal" in="SourceGraphic" in2="BackgroundImageFix" result="shape"/>
<feGaussianBlur stdDeviation="2" result="effect1_foregroundBlur_849_1385"/>
</filter>
<filter id="filter7_f_849_1385" x="8.03101" y="2.2334" width="23.5081" height="35.3916" filterUnits="userSpaceOnUse" color-interpolation-filters="sRGB">
<feFlood flood-opacity="0" result="BackgroundImageFix"/>
<feBlend mode="normal" in="SourceGraphic" in2="BackgroundImageFix" result="shape"/>
<feGaussianBlur stdDeviation="2" result="effect1_foregroundBlur_849_1385"/>
</filter>
</defs>
</svg>
